<mxfile host="65bd71144e">
    <diagram id="TblW12fGxgtegXIIMCht" name="Page-1">
        <mxGraphModel dx="2332" dy="1953" grid="1" gridSize="10" guides="0" tooltips="1" connect="1" arrows="1" fold="1" page="1" pageScale="1" pageWidth="1100" pageHeight="850" math="0" shadow="0">
            <root>
                <mxCell id="0"/>
                <mxCell id="1" parent="0"/>
                <mxCell id="25" value="Triggers" style="edgeStyle=orthogonalEdgeStyle;html=1;dashed=1;exitX=0.5;exitY=1;exitDx=0;exitDy=0;" parent="1" source="157" target="30" edge="1">
                    <mxGeometry relative="1" as="geometry">
                        <mxPoint x="888.7692307692307" y="251.48936170212767" as="targetPoint"/>
                        <mxPoint x="245" y="60" as="sourcePoint"/>
                    </mxGeometry>
                </mxCell>
                <mxCell id="64" value="Workflow" style="swimlane;horizontal=0;whiteSpace=wrap;html=1;dashed=1;dashPattern=8 8;glass=0;fillStyle=auto;swimlaneFillColor=none;gradientColor=none;" parent="1" vertex="1">
                    <mxGeometry x="10" y="240" width="1080" height="180" as="geometry">
                        <mxRectangle x="260" y="420" width="40" height="80" as="alternateBounds"/>
                    </mxGeometry>
                </mxCell>
                <mxCell id="145" value="" style="ellipse;whiteSpace=wrap;html=1;aspect=fixed;" vertex="1" parent="64">
                    <mxGeometry x="410" y="40" width="30.77" height="30.77" as="geometry"/>
                </mxCell>
                <mxCell id="146" value="Plan Dev" style="shape=process;whiteSpace=wrap;html=1;backgroundOutline=1;fillColor=#60a917;fontColor=#ffffff;strokeColor=#2D7600;" vertex="1" parent="64">
                    <mxGeometry x="470" y="20" width="86.08695652173913" height="27.692307692307693" as="geometry"/>
                </mxCell>
                <mxCell id="147" style="edgeStyle=orthogonalEdgeStyle;html=1;entryX=0;entryY=0.75;entryDx=0;entryDy=0;" edge="1" parent="64" source="145" target="146">
                    <mxGeometry relative="1" as="geometry"/>
                </mxCell>
                <mxCell id="148" value="Plan Prd" style="shape=process;whiteSpace=wrap;html=1;backgroundOutline=1;fillColor=#60a917;fontColor=#ffffff;strokeColor=#2D7600;" vertex="1" parent="64">
                    <mxGeometry x="470" y="52.30769230769232" width="86.08695652173913" height="27.692307692307693" as="geometry"/>
                </mxCell>
                <mxCell id="149" style="edgeStyle=orthogonalEdgeStyle;html=1;" edge="1" parent="64" source="145" target="148">
                    <mxGeometry relative="1" as="geometry"/>
                </mxCell>
                <mxCell id="150" value="Apply Dev" style="shape=process;whiteSpace=wrap;html=1;backgroundOutline=1;fillColor=#60a917;fontColor=#ffffff;strokeColor=#2D7600;" vertex="1" parent="64">
                    <mxGeometry x="578.4782608695652" y="20" width="86.08695652173913" height="27.692307692307693" as="geometry"/>
                </mxCell>
                <mxCell id="151" value="" style="edgeStyle=orthogonalEdgeStyle;html=1;" edge="1" parent="64" source="146" target="150">
                    <mxGeometry relative="1" as="geometry"/>
                </mxCell>
                <mxCell id="152" value="Apply Prd" style="shape=process;whiteSpace=wrap;html=1;backgroundOutline=1;fillColor=#bac8d3;strokeColor=#23445d;" vertex="1" parent="64">
                    <mxGeometry x="678.9130434782609" y="52.30769230769232" width="86.08695652173913" height="27.692307692307693" as="geometry"/>
                </mxCell>
                <mxCell id="153" value="" style="edgeStyle=orthogonalEdgeStyle;html=1;" edge="1" parent="64" source="148" target="152">
                    <mxGeometry relative="1" as="geometry"/>
                </mxCell>
                <mxCell id="154" style="edgeStyle=orthogonalEdgeStyle;html=1;entryX=0;entryY=0.5;entryDx=0;entryDy=0;exitX=0.5;exitY=1;exitDx=0;exitDy=0;" edge="1" parent="64" source="150" target="152">
                    <mxGeometry relative="1" as="geometry"/>
                </mxCell>
                <mxCell id="155" value="Approval Canceled" style="text;html=1;strokeColor=none;fillColor=none;align=center;verticalAlign=middle;whiteSpace=wrap;rounded=0;" vertex="1" parent="64">
                    <mxGeometry x="695" y="20" width="60" height="30" as="geometry"/>
                </mxCell>
                <mxCell id="30" value="" style="ellipse;whiteSpace=wrap;html=1;aspect=fixed;" parent="64" vertex="1">
                    <mxGeometry x="155" y="30" width="30.77" height="30.77" as="geometry"/>
                </mxCell>
                <mxCell id="16" value="Plan Dev" style="shape=process;whiteSpace=wrap;html=1;backgroundOutline=1;fillColor=#60a917;fontColor=#ffffff;strokeColor=#2D7600;" parent="64" vertex="1">
                    <mxGeometry x="175" y="80" width="45" height="27.69" as="geometry"/>
                </mxCell>
                <mxCell id="31" style="edgeStyle=orthogonalEdgeStyle;html=1;entryX=0.5;entryY=0;entryDx=0;entryDy=0;exitX=0.5;exitY=1;exitDx=0;exitDy=0;" parent="64" source="30" target="16" edge="1">
                    <mxGeometry relative="1" as="geometry"/>
                </mxCell>
                <mxCell id="17" value="Plan Prd" style="shape=process;whiteSpace=wrap;html=1;backgroundOutline=1;fillColor=#60a917;fontColor=#ffffff;strokeColor=#2D7600;" parent="64" vertex="1">
                    <mxGeometry x="115" y="80" width="50" height="27.69" as="geometry"/>
                </mxCell>
                <mxCell id="32" style="edgeStyle=orthogonalEdgeStyle;html=1;exitX=0.5;exitY=1;exitDx=0;exitDy=0;" parent="64" source="30" target="17" edge="1">
                    <mxGeometry relative="1" as="geometry"/>
                </mxCell>
                <mxCell id="169" value="" style="ellipse;whiteSpace=wrap;html=1;aspect=fixed;" vertex="1" parent="64">
                    <mxGeometry x="275" y="30" width="30.77" height="30.77" as="geometry"/>
                </mxCell>
                <mxCell id="170" value="Plan Dev" style="shape=process;whiteSpace=wrap;html=1;backgroundOutline=1;fillColor=#60a917;fontColor=#ffffff;strokeColor=#2D7600;" vertex="1" parent="64">
                    <mxGeometry x="295" y="80" width="45" height="27.69" as="geometry"/>
                </mxCell>
                <mxCell id="171" style="edgeStyle=orthogonalEdgeStyle;html=1;entryX=0.5;entryY=0;entryDx=0;entryDy=0;exitX=0.5;exitY=1;exitDx=0;exitDy=0;" edge="1" parent="64" source="169" target="170">
                    <mxGeometry relative="1" as="geometry"/>
                </mxCell>
                <mxCell id="172" value="Plan Prd" style="shape=process;whiteSpace=wrap;html=1;backgroundOutline=1;fillColor=#60a917;fontColor=#ffffff;strokeColor=#2D7600;" vertex="1" parent="64">
                    <mxGeometry x="235" y="80" width="50" height="27.69" as="geometry"/>
                </mxCell>
                <mxCell id="173" style="edgeStyle=orthogonalEdgeStyle;html=1;exitX=0.5;exitY=1;exitDx=0;exitDy=0;" edge="1" parent="64" source="169" target="172">
                    <mxGeometry relative="1" as="geometry"/>
                </mxCell>
                <mxCell id="81" value="Triggers" style="edgeStyle=orthogonalEdgeStyle;html=1;dashed=1;exitX=0.5;exitY=1;exitDx=0;exitDy=0;entryX=0.5;entryY=0;entryDx=0;entryDy=0;" parent="1" source="161" target="169" edge="1">
                    <mxGeometry relative="1" as="geometry">
                        <mxPoint x="273" y="290" as="targetPoint"/>
                        <Array as="points">
                            <mxPoint x="300" y="60"/>
                            <mxPoint x="300" y="270"/>
                        </Array>
                        <mxPoint x="273" y="60" as="sourcePoint"/>
                    </mxGeometry>
                </mxCell>
                <mxCell id="84" value="Git Changes" style="swimlane;horizontal=0;whiteSpace=wrap;html=1;glass=0;dashed=1;dashPattern=8 8;fillStyle=auto;gradientColor=none;" parent="1" vertex="1">
                    <mxGeometry x="10" y="-280" width="1080" height="270" as="geometry"/>
                </mxCell>
                <mxCell id="9" value="Main" style="rounded=1;whiteSpace=wrap;html=1;fillColor=#1ba1e2;fontColor=#ffffff;strokeColor=#006EAF;" parent="84" vertex="1">
                    <mxGeometry x="979.9992307692307" y="20" width="89.23076923076923" height="39.57446808510638" as="geometry"/>
                </mxCell>
                <mxCell id="10" value="branch-1" style="rounded=1;whiteSpace=wrap;html=1;fillColor=#f0a30a;fontColor=#000000;strokeColor=#BD7000;" parent="84" vertex="1">
                    <mxGeometry x="979.9992307692307" y="76.063829787234" width="89.23076923076923" height="39.57446808510638" as="geometry"/>
                </mxCell>
                <mxCell id="11" value="branch-2" style="rounded=1;whiteSpace=wrap;html=1;fillColor=#fa6800;fontColor=#000000;strokeColor=#C73500;" parent="84" vertex="1">
                    <mxGeometry x="979.9992307692307" y="135.42553191489355" width="89.23076923076923" height="39.57446808510638" as="geometry"/>
                </mxCell>
                <mxCell id="134" style="edgeStyle=none;html=1;entryX=0;entryY=0;entryDx=0;entryDy=0;" edge="1" parent="84" source="2" target="133">
                    <mxGeometry relative="1" as="geometry"/>
                </mxCell>
                <mxCell id="2" value="Main" style="ellipse;whiteSpace=wrap;html=1;aspect=fixed;fillColor=#1ba1e2;fontColor=#ffffff;strokeColor=#006EAF;align=center;verticalAlign=bottom;labelPosition=center;verticalLabelPosition=top;" parent="84" vertex="1">
                    <mxGeometry x="56" y="23.29787234042553" width="32.97872340425532" height="32.97872340425532" as="geometry"/>
                </mxCell>
                <mxCell id="12" value="" style="ellipse;whiteSpace=wrap;html=1;aspect=fixed;fillColor=#f0a30a;fontColor=#000000;strokeColor=#BD7000;align=center;verticalAlign=bottom;labelPosition=center;verticalLabelPosition=top;" parent="84" vertex="1">
                    <mxGeometry x="136.00307692307692" y="150.00170212765957" width="32.97872340425532" height="32.97872340425532" as="geometry"/>
                </mxCell>
                <mxCell id="13" style="edgeStyle=orthogonalEdgeStyle;html=1;entryX=0;entryY=0.5;entryDx=0;entryDy=0;exitX=0.5;exitY=1;exitDx=0;exitDy=0;" parent="84" source="133" target="12" edge="1">
                    <mxGeometry relative="1" as="geometry"/>
                </mxCell>
                <mxCell id="14" value="" style="ellipse;whiteSpace=wrap;html=1;aspect=fixed;fillColor=#fa6800;fontColor=#000000;strokeColor=#C73500;align=center;verticalAlign=bottom;labelPosition=center;verticalLabelPosition=top;" parent="84" vertex="1">
                    <mxGeometry x="190.00307692307692" y="199.46978723404254" width="32.97872340425532" height="32.97872340425532" as="geometry"/>
                </mxCell>
                <mxCell id="15" style="edgeStyle=orthogonalEdgeStyle;html=1;entryX=0;entryY=0.5;entryDx=0;entryDy=0;exitX=0.5;exitY=1;exitDx=0;exitDy=0;" parent="84" source="133" target="14" edge="1">
                    <mxGeometry relative="1" as="geometry">
                        <mxPoint x="100" y="130" as="sourcePoint"/>
                    </mxGeometry>
                </mxCell>
                <mxCell id="137" style="edgeStyle=orthogonalEdgeStyle;html=1;entryX=0.5;entryY=1;entryDx=0;entryDy=0;" edge="1" parent="84" target="135">
                    <mxGeometry relative="1" as="geometry">
                        <mxPoint x="227.46897772296643" y="166.48275862068976" as="sourcePoint"/>
                    </mxGeometry>
                </mxCell>
                <mxCell id="138" value="accepted" style="edgeLabel;html=1;align=center;verticalAlign=middle;resizable=0;points=[];" vertex="1" connectable="0" parent="137">
                    <mxGeometry x="0.1931" relative="1" as="geometry">
                        <mxPoint as="offset"/>
                    </mxGeometry>
                </mxCell>
                <mxCell id="26" style="edgeStyle=orthogonalEdgeStyle;html=1;dashed=1;exitX=1;exitY=0.5;exitDx=0;exitDy=0;" parent="84" source="12" edge="1">
                    <mxGeometry relative="1" as="geometry">
                        <mxPoint x="176" y="190" as="sourcePoint"/>
                        <mxPoint x="220" y="100" as="targetPoint"/>
                    </mxGeometry>
                </mxCell>
                <mxCell id="133" value="deployment" style="ellipse;whiteSpace=wrap;html=1;aspect=fixed;fillColor=#1ba1e2;fontColor=#ffffff;strokeColor=#006EAF;align=center;verticalAlign=bottom;labelPosition=center;verticalLabelPosition=top;" vertex="1" parent="84">
                    <mxGeometry x="100" y="79.99787234042553" width="32.97872340425532" height="32.97872340425532" as="geometry"/>
                </mxCell>
                <mxCell id="178" value="" style="edgeStyle=orthogonalEdgeStyle;html=1;" edge="1" parent="84" source="135" target="177">
                    <mxGeometry relative="1" as="geometry"/>
                </mxCell>
                <mxCell id="135" value="" style="ellipse;whiteSpace=wrap;html=1;aspect=fixed;fillColor=#1ba1e2;fontColor=#ffffff;strokeColor=#006EAF;align=center;verticalAlign=bottom;labelPosition=center;verticalLabelPosition=top;" vertex="1" parent="84">
                    <mxGeometry x="389.9987234042553" y="79.99787234042552" width="32.97872340425532" height="32.97872340425532" as="geometry"/>
                </mxCell>
                <mxCell id="136" value="" style="edgeStyle=none;html=1;" edge="1" parent="84" source="133" target="135">
                    <mxGeometry relative="1" as="geometry"/>
                </mxCell>
                <mxCell id="177" value="" style="ellipse;whiteSpace=wrap;html=1;aspect=fixed;fillColor=#1ba1e2;fontColor=#ffffff;strokeColor=#006EAF;align=center;verticalAlign=bottom;labelPosition=center;verticalLabelPosition=top;" vertex="1" parent="84">
                    <mxGeometry x="502.97744680851065" y="79.99787234042552" width="32.97872340425532" height="32.97872340425532" as="geometry"/>
                </mxCell>
                <mxCell id="176" style="edgeStyle=orthogonalEdgeStyle;html=1;entryX=0.5;entryY=1;entryDx=0;entryDy=0;" edge="1" parent="84" source="14" target="177">
                    <mxGeometry relative="1" as="geometry">
                        <mxPoint x="560" y="215.95914893617032" as="targetPoint"/>
                    </mxGeometry>
                </mxCell>
                <mxCell id="86" value="Environments" style="swimlane;horizontal=0;whiteSpace=wrap;html=1;glass=0;dashed=1;dashPattern=8 8;fillStyle=auto;gradientColor=none;" parent="1" vertex="1">
                    <mxGeometry x="10" y="500" width="1080" height="200" as="geometry"/>
                </mxCell>
                <mxCell id="87" value="Development is based on PR1" style="rounded=1;whiteSpace=wrap;html=1;glass=0;dashed=1;dashPattern=8 8;fillStyle=auto;gradientColor=#ea6b66;fillColor=#f8cecc;strokeColor=#b85450;fontColor=#000000;" parent="86" vertex="1">
                    <mxGeometry x="335" y="20" width="120" height="60" as="geometry"/>
                </mxCell>
                <mxCell id="88" value="Development is based on PR2" style="rounded=1;whiteSpace=wrap;html=1;glass=0;dashed=1;dashPattern=8 8;fillStyle=auto;gradientColor=#ea6b66;fillColor=#f8cecc;strokeColor=#b85450;fontColor=#000000;" parent="86" vertex="1">
                    <mxGeometry x="791" y="20" width="120" height="60" as="geometry"/>
                </mxCell>
                <mxCell id="91" value="&lt;font color=&quot;#000000&quot;&gt;Production&lt;/font&gt;" style="rounded=1;whiteSpace=wrap;html=1;glass=0;dashed=1;dashPattern=8 8;fillStyle=auto;gradientColor=#ffd966;fillColor=#fff2cc;strokeColor=#d6b656;" parent="86" vertex="1">
                    <mxGeometry x="338" y="110" width="120" height="60" as="geometry"/>
                </mxCell>
                <mxCell id="92" value="&lt;font color=&quot;#000000&quot;&gt;Production&lt;/font&gt;" style="rounded=1;whiteSpace=wrap;html=1;glass=0;dashed=1;dashPattern=8 8;fillStyle=auto;gradientColor=#ffd966;fillColor=#fff2cc;strokeColor=#d6b656;" parent="86" vertex="1">
                    <mxGeometry x="794" y="110" width="120" height="60" as="geometry"/>
                </mxCell>
                <mxCell id="114" value="Multiple PRs to main branch Deploy with Tags" style="text;html=1;strokeColor=none;fillColor=none;align=center;verticalAlign=middle;whiteSpace=wrap;rounded=0;fontSize=22;" parent="1" vertex="1">
                    <mxGeometry x="20" y="-470" width="490" height="30" as="geometry"/>
                </mxCell>
                <mxCell id="156" value="PRs" style="swimlane;horizontal=0;whiteSpace=wrap;html=1;" vertex="1" parent="1">
                    <mxGeometry x="10" width="1080" height="90" as="geometry"/>
                </mxCell>
                <mxCell id="157" value="PR" style="rounded=0;whiteSpace=wrap;html=1;" vertex="1" parent="156">
                    <mxGeometry x="135" y="30" width="70" height="30" as="geometry"/>
                </mxCell>
                <mxCell id="161" value="PR" style="rounded=0;whiteSpace=wrap;html=1;" vertex="1" parent="156">
                    <mxGeometry x="254" y="30" width="70" height="30" as="geometry"/>
                </mxCell>
                <mxCell id="158" style="edgeStyle=orthogonalEdgeStyle;html=1;entryX=0.5;entryY=0;entryDx=0;entryDy=0;dashed=1;" edge="1" parent="1" target="157">
                    <mxGeometry relative="1" as="geometry">
                        <mxPoint x="180" y="-114" as="sourcePoint"/>
                    </mxGeometry>
                </mxCell>
                <mxCell id="62" style="edgeStyle=orthogonalEdgeStyle;html=1;dashed=1;entryX=0.5;entryY=0;entryDx=0;entryDy=0;" parent="1" target="161" edge="1">
                    <mxGeometry relative="1" as="geometry">
                        <mxPoint x="286.0802564102678" y="-63.86893617021292" as="targetPoint"/>
                        <mxPoint x="240" y="-60" as="sourcePoint"/>
                    </mxGeometry>
                </mxCell>
                <mxCell id="163" style="edgeStyle=orthogonalEdgeStyle;html=1;dashed=1;" edge="1" parent="1" source="14">
                    <mxGeometry relative="1" as="geometry">
                        <mxPoint x="310" y="-180" as="targetPoint"/>
                    </mxGeometry>
                </mxCell>
            </root>
        </mxGraphModel>
    </diagram>
</mxfile>